<?xml version="1.0" encoding="UTF-8" standalone="no"?><!DOCTYPE svg PUBLIC "-//W3C//DTD SVG 1.1//EN" "http://www.w3.org/Graphics/SVG/1.1/DTD/svg11.dtd"><svg width="100%" height="100%" viewBox="0 0 448 512" version="1.1" xmlns="http://www.w3.org/2000/svg" xmlns:xlink="http://www.w3.org/1999/xlink" xml:space="preserve" xmlns:serif="http://www.serif.com/" style="fill-rule:evenodd;clip-rule:evenodd;stroke-linejoin:round;stroke-miterlimit:1.41421;"><path d="M196.1,123.6c-0.2,-1.4 1.9,-2.3 3.2,-2.9c1.7,-0.7 3.9,-1 5.5,-0.1c0.4,0.2 0.8,0.7 0.6,1.1c-0.4,1.2 -2.4,1 -3.5,1.6c-1,0.5 -1.8,1.7 -3,1.7c-1,0.1 -2.7,-0.4 -2.8,-1.4Zm24.7,-0.3c1,0.5 1.8,1.7 3,1.7c1.1,0 2.8,-0.4 2.9,-1.5c0.2,-1.4 -1.9,-2.3 -3.2,-2.9c-1.7,-0.7 -3.9,-1 -5.5,-0.1c-0.4,0.2 -0.8,0.7 -0.6,1.1c0.3,1.3 2.3,1.1 3.4,1.7Zm214.7,310.2c-0.5,8.2 -6.5,13.8 -13.9,18.3c-14.9,9 -37.3,15.8 -50.9,32.2l-2.6,-2.2l2.6,2.2c-14.2,16.9 -31.7,26.6 -48.3,27.9c-16.5,1.3 -32,-6.3 -40.3,-23l0,-0.1c-1.1,-2.1 -1.9,-4.4 -2.5,-6.7c-21.5,1.2 -40.2,-5.3 -55.1,-4.1c-22,1.2 -35.8,6.5 -48.3,6.6c-4.8,10.6 -14.3,17.6 -25.9,20.2c-16,3.7 -36.1,0 -55.9,-10.4l1.6,-3l-1.6,3c-18.5,-9.8 -42,-8.9 -59.3,-12.5c-8.7,-1.8 -16.3,-5 -20.1,-12.3c-3.7,-7.3 -3,-17.3 2.2,-31.7c1.7,-5.1 0.4,-12.7 -0.8,-20.8c-0.6,-3.9 -1.2,-7.9 -1.2,-11.8c0,-4.3 0.7,-8.5 2.8,-12.4c4.5,-8.5 11.8,-12.1 18.5,-14.5c6.7,-2.4 12.8,-4 17,-8.3c5.2,-5.5 10.1,-14.4 16.6,-20.2c-2.6,-17.2 0.2,-35.4 6.2,-53.3c12.6,-37.9 39.2,-74.2 58.1,-96.7c16.1,-22.9 20.8,-41.3 22.5,-64.7c1.1,-31.8 -24.5,-135.4 77.9,-135.2c80.9,0.1 76.3,85.4 75.8,131.3c-0.3,30.1 16.3,50.5 33.4,72c15.2,18 35.1,44.3 46.5,74.4c9.3,24.6 12.9,51.8 3.7,79.1c1.4,0.5 2.8,1.2 4.1,2c1.4,0.8 2.7,1.8 4,2.9c6.6,5.6 8.7,14.3 10.5,22.4c1.9,8.1 3.6,15.7 7.2,19.7c11.1,12.4 15.9,21.5 15.5,29.7Zm-214.7,-324.4c3.6,0.9 8.9,2.4 13,4.4c-2.1,-12.2 4.5,-23.5 11.8,-23c8.9,0.3 13.9,15.5 9.1,27.3c-0.8,1.9 -2.8,3.4 -3.9,4.6c6.7,2.3 11,4.1 12.6,4.9c7.9,-9.5 10.8,-26.2 4.3,-40.4c-9.8,-21.4 -34.2,-21.8 -44,0.4c-3.2,7.2 -3.9,14.9 -2.9,21.8Zm-46.2,18.8c7.8,-5.7 6.9,-4.7 5.9,-5.5c-8,-6.9 -6.6,-27.4 1.8,-28.1c6.3,-0.5 10.8,10.7 9.6,19.6c3.1,-2.1 6.7,-3.6 10.2,-4.6c1.7,-19.3 -9,-33.5 -19.1,-33.5c-18.9,0 -24,37.5 -8.4,52.1Zm-9.4,20.9c1.5,4.9 6.1,10.5 14.7,15.3c7.8,4.6 12,11.5 20,15c2.6,1.1 5.7,1.9 9.6,2.1c18.4,1.1 27.1,-11.3 38.2,-14.9c11.7,-3.7 20.1,-11 22.7,-18.1c3.2,-8.5 -2.1,-14.7 -10.5,-18.2c-11.3,-4.9 -16.3,-5.2 -22.6,-9.3c-10.3,-6.6 -18.8,-8.9 -25.9,-8.9c-14.4,0 -23.2,9.8 -27.9,14.2c-0.5,0.5 -7.9,5.9 -14.1,10.5c-4.2,3.3 -5.6,7.4 -4.2,12.3Zm-33.5,252.8l-19.6,-35.6c-6.8,-9.2 -13.8,-14.8 -21.9,-16c-7.7,-1.2 -12.6,1.4 -17.7,6.9c-4.8,5.1 -8.8,12.3 -14.3,18c-7.8,6.5 -9.3,6.2 -19.6,9.9c-6.3,2.2 -11.3,4.6 -14.8,11.3c-2.7,5 -2.1,12.2 -0.9,20c1.2,7.9 3,16.3 0.6,23.9l0,0.2c-5,13.7 -5,21.7 -2.6,26.4c7.9,15.4 46.6,6.1 76.5,21.9c31.4,16.4 72.6,17.1 75.3,-18c2.1,-20.5 -31.5,-49 -41,-68.9Zm153.9,35.8c3.2,-11 6.3,-21.3 6.8,-29c0.8,-15.2 1.6,-28.7 4.4,-39.9c3.1,-12.6 9.3,-23.1 21.4,-27.3c2.3,-21.1 18.7,-21.1 38.3,-12.5c18.9,8.5 26,16 22.8,26.1c1,0 2,-0.1 4.2,0c5.2,-16.9 -14.3,-28 -30.7,-34.8c2.9,-12 2.4,-24.1 -0.4,-35.7c-6,-25.3 -22.6,-47.8 -35.2,-59c-2.3,-0.1 -2.1,1.9 2.6,6.5c11.6,10.7 37.1,49.2 23.3,84.9c-3.9,-1 -7.6,-1.5 -10.9,-1.4c-5.3,-29.1 -17.5,-53.2 -23.6,-64.6c-11.5,-21.4 -29.5,-65.3 -37.2,-95.7c-4.5,6.4 -12.4,11.9 -22.3,15c-4.7,1.5 -9.7,5.5 -15.9,9c-13.9,8 -30,8.8 -42.4,-1.2c-4.5,-3.6 -8,-7.6 -12.6,-10.3c-1.6,-0.9 -5.1,-3.3 -6.2,-4.1c-2,37.8 -27.3,85.3 -39.3,112.7c-8.3,19.7 -13.2,40.8 -13.8,61.5c-21.8,-29.1 -5.9,-66.3 2.6,-82.4c9.5,-17.6 11,-22.5 8.7,-20.8c-8.6,14 -22,36.3 -27.2,59.2c-2.7,11.9 -3.2,24 0.3,35.2c3.5,11.2 11.1,21.5 24.6,29.9c0,0 24.8,14.3 38.3,32.5c7.4,10 9.7,18.7 7.4,24.9c-2.5,6.7 -9.6,8.9 -16.7,8.9c4.8,6 10.3,13 14.4,19.6c37.6,25.7 82.2,15.7 114.3,-7.2Zm129.4,-28.9c-10,-11.3 -7.2,-33.1 -17.1,-41.6c-6.9,-6 -13.6,-5.4 -22.6,-5.1c-7.7,8.8 -25.8,19.6 -38.4,16.3c-11.5,-2.9 -18,-16.3 -18.8,-29.5c-0.3,0.2 -0.7,0.3 -1,0.5c-7.1,3.9 -11.1,10.8 -13.7,21.1c-2.5,10.2 -3.4,23.5 -4.2,38.7c-0.7,11.8 -6.2,26.4 -9.9,40.6c-3.5,13.2 -5.8,25.2 -1.1,36.3c7.2,14.5 19.5,20.4 33.7,19.3c14.2,-1.1 30.4,-9.8 43.6,-25.5c22,-26.6 62.3,-29.7 63.2,-46.5c0.3,-5.1 -3.1,-13 -13.7,-24.6Zm-241.7,-259.8c2,1.9 4.7,4.5 8,7.1c6.6,5.2 15.8,10.6 27.3,10.6c11.6,0 22.5,-5.9 31.8,-10.8c4.9,-2.6 10.9,-7 14.8,-10.4c3.9,-3.4 5.9,-6.3 3.1,-6.6c-2.8,-0.3 -2.6,2.6 -6,5.1c-4.4,3.2 -9.7,7.4 -13.9,9.8c-7.4,4.2 -19.5,10.2 -29.9,10.2c-10.4,0 -18.7,-4.8 -24.9,-9.7c-3.1,-2.5 -5.7,-5 -7.7,-6.9c-1.5,-1.4 -1.9,-4.6 -4.3,-4.9c-1.4,-0.1 -1.8,3.7 1.7,6.5Z" style="fill:#fff;fill-rule:nonzero;"/></svg>