<?xml version="1.0" encoding="UTF-8" standalone="no"?><!DOCTYPE svg PUBLIC "-//W3C//DTD SVG 1.1//EN"
        "http://www.w3.org/Graphics/SVG/1.1/DTD/svg11.dtd">
<svg width="123px" height="30px" viewBox="0 0 123 30" version="1.1" xmlns="http://www.w3.org/2000/svg" xmlns:xlink="http://www.w3.org/1999/xlink" xml:space="preserve" xmlns:serif="http://www.serif.com/" style="fill-rule:evenodd;clip-rule:evenodd;stroke-linejoin:round;stroke-miterlimit:1.41421;">
    <path d="M123,27c0,1.657 -1.343,3 -3,3l-117,0c-1.657,0 -3,-1.343 -3,-3l0,-24c0,-1.657 1.343,-3 3,-3l117,0c1.657,0 3,1.343 3,3l0,24Z" style="fill:#6a57d5;fill-rule:nonzero;"/>
    <path d="M14.428,8.139c3.786,0 6.861,3.074 6.861,6.861c0,3.787 -3.075,6.861 -6.861,6.861c-3.787,0 -6.861,-3.074 -6.861,-6.861c0,-3.787 3.074,-6.861 6.861,-6.861Zm-0.866,1.148c0.283,-0.042 0.572,-0.064 0.866,-0.064c3.188,0 5.777,2.588 5.777,5.777c0,3.189 -2.589,5.777 -5.777,5.777c-3.189,0 -5.778,-2.588 -5.778,-5.777c0,-0.294 0.022,-0.583 0.065,-0.865c0.606,0.538 1.404,0.865 2.278,0.865c1.896,0 3.435,-1.539 3.435,-3.434c0,-0.874 -0.327,-1.672 -0.866,-2.279Z" style="fill:#fff;"/>
    <path d="M30.947,14.85c0.338,0 0.634,-0.041 0.887,-0.123c0.253,-0.082 0.464,-0.197 0.633,-0.345c0.169,-0.148 0.295,-0.324 0.38,-0.529c0.084,-0.204 0.126,-0.431 0.126,-0.68c0,-0.498 -0.164,-0.878 -0.493,-1.14c-0.33,-0.262 -0.828,-0.392 -1.495,-0.392l-1.202,0l0,3.209l1.164,0Zm4.293,4.749l-1.323,0c-0.262,0 -0.452,-0.101 -0.57,-0.304l-2.127,-3.071c-0.072,-0.105 -0.15,-0.181 -0.235,-0.228c-0.084,-0.046 -0.211,-0.069 -0.379,-0.069l-0.823,0l0,3.672l-1.482,0l0,-9.117l2.684,0c0.6,0 1.116,0.061 1.548,0.183c0.433,0.123 0.789,0.297 1.067,0.523c0.279,0.226 0.485,0.497 0.618,0.813c0.133,0.317 0.199,0.669 0.199,1.058c0,0.316 -0.047,0.612 -0.142,0.886c-0.095,0.274 -0.233,0.523 -0.412,0.747c-0.179,0.224 -0.4,0.418 -0.662,0.583c-0.261,0.164 -0.559,0.293 -0.892,0.386c0.181,0.11 0.337,0.264 0.468,0.462l2.463,3.476Z" style="fill:#fff;fill-rule:nonzero;"/>
    <path d="M41.274,13.141l0,6.458l-0.823,0c-0.182,0 -0.298,-0.087 -0.348,-0.26l-0.102,-0.601c-0.135,0.143 -0.277,0.274 -0.427,0.392c-0.15,0.119 -0.309,0.22 -0.478,0.304c-0.169,0.085 -0.349,0.15 -0.541,0.197c-0.193,0.046 -0.398,0.069 -0.618,0.069c-0.354,0 -0.667,-0.059 -0.937,-0.177c-0.27,-0.118 -0.497,-0.285 -0.68,-0.5c-0.184,-0.215 -0.322,-0.474 -0.415,-0.776c-0.093,-0.302 -0.139,-0.634 -0.139,-0.997l0,-4.109l1.361,0l0,4.109c0,0.435 0.1,0.772 0.301,1.013c0.2,0.241 0.505,0.361 0.914,0.361c0.3,0 0.58,-0.069 0.839,-0.206c0.26,-0.137 0.504,-0.326 0.732,-0.567l0,-4.71l1.361,0Z" style="fill:#fff;fill-rule:nonzero;"/>
    <path d="M44.205,13.996c0.139,-0.144 0.284,-0.274 0.434,-0.39c0.15,-0.116 0.309,-0.216 0.478,-0.3c0.169,-0.085 0.348,-0.15 0.538,-0.197c0.19,-0.046 0.397,-0.069 0.621,-0.069c0.354,0 0.665,0.059 0.933,0.177c0.268,0.118 0.494,0.285 0.678,0.5c0.183,0.215 0.322,0.474 0.415,0.776c0.092,0.302 0.139,0.634 0.139,0.997l0,4.109l-1.355,0l0,-4.109c0,-0.435 -0.1,-0.772 -0.301,-1.013c-0.2,-0.241 -0.505,-0.361 -0.915,-0.361c-0.304,0 -0.585,0.07 -0.845,0.209c-0.259,0.139 -0.503,0.329 -0.731,0.57l0,4.704l-1.361,0l0,-6.458l0.823,0c0.185,0 0.304,0.087 0.354,0.26l0.095,0.595Z" style="fill:#fff;fill-rule:nonzero;"/>
    <path d="M54.607,13.141l0,6.458l-1.361,0l0,-6.458l1.361,0Zm0.228,-1.95c0,0.122 -0.024,0.238 -0.072,0.348c-0.049,0.11 -0.115,0.206 -0.2,0.288c-0.084,0.083 -0.182,0.148 -0.294,0.197c-0.112,0.048 -0.231,0.072 -0.358,0.072c-0.122,0 -0.237,-0.024 -0.345,-0.072c-0.108,-0.049 -0.202,-0.114 -0.282,-0.197c-0.08,-0.082 -0.144,-0.178 -0.193,-0.288c-0.048,-0.11 -0.073,-0.226 -0.073,-0.348c0,-0.127 0.025,-0.245 0.073,-0.355c0.049,-0.109 0.113,-0.205 0.193,-0.288c0.08,-0.082 0.174,-0.147 0.282,-0.196c0.108,-0.048 0.223,-0.073 0.345,-0.073c0.127,0 0.246,0.025 0.358,0.073c0.112,0.049 0.21,0.114 0.294,0.196c0.085,0.083 0.151,0.179 0.2,0.288c0.048,0.11 0.072,0.228 0.072,0.355Z" style="fill:#fff;fill-rule:nonzero;"/>
    <path d="M57.596,13.996c0.139,-0.144 0.284,-0.274 0.434,-0.39c0.149,-0.116 0.309,-0.216 0.478,-0.3c0.168,-0.085 0.348,-0.15 0.538,-0.197c0.19,-0.046 0.396,-0.069 0.62,-0.069c0.355,0 0.666,0.059 0.934,0.177c0.268,0.118 0.494,0.285 0.677,0.5c0.184,0.215 0.322,0.474 0.415,0.776c0.093,0.302 0.139,0.634 0.139,0.997l0,4.109l-1.354,0l0,-4.109c0,-0.435 -0.101,-0.772 -0.301,-1.013c-0.201,-0.241 -0.506,-0.361 -0.915,-0.361c-0.304,0 -0.586,0.07 -0.845,0.209c-0.26,0.139 -0.504,0.329 -0.732,0.57l0,4.704l-1.361,0l0,-6.458l0.823,0c0.186,0 0.304,0.087 0.355,0.26l0.095,0.595Z" style="fill:#fff;fill-rule:nonzero;"/>
    <rect x="66.833" y="10.482" width="1.488" height="9.117" style="fill:#fff;fill-rule:nonzero;"/>
    <path d="M71.411,13.996c0.139,-0.144 0.284,-0.274 0.433,-0.39c0.15,-0.116 0.31,-0.216 0.478,-0.3c0.169,-0.085 0.349,-0.15 0.539,-0.197c0.19,-0.046 0.396,-0.069 0.62,-0.069c0.355,0 0.666,0.059 0.934,0.177c0.268,0.118 0.494,0.285 0.677,0.5c0.184,0.215 0.322,0.474 0.415,0.776c0.093,0.302 0.139,0.634 0.139,0.997l0,4.109l-1.355,0l0,-4.109c0,-0.435 -0.1,-0.772 -0.3,-1.013c-0.201,-0.241 -0.506,-0.361 -0.915,-0.361c-0.304,0 -0.586,0.07 -0.845,0.209c-0.26,0.139 -0.504,0.329 -0.732,0.57l0,4.704l-1.361,0l0,-6.458l0.823,0c0.186,0 0.304,0.087 0.355,0.26l0.095,0.595Z" style="fill:#fff;fill-rule:nonzero;"/>
    <path d="M81.098,14.312c-0.034,0.059 -0.072,0.102 -0.114,0.127c-0.043,0.025 -0.095,0.038 -0.159,0.038c-0.071,0 -0.149,-0.022 -0.234,-0.067c-0.084,-0.044 -0.184,-0.093 -0.297,-0.148c-0.114,-0.055 -0.248,-0.105 -0.403,-0.149c-0.154,-0.044 -0.334,-0.067 -0.541,-0.067c-0.169,0 -0.322,0.02 -0.459,0.061c-0.137,0.04 -0.253,0.097 -0.348,0.17c-0.095,0.074 -0.168,0.161 -0.219,0.26c-0.05,0.099 -0.075,0.206 -0.075,0.32c0,0.152 0.046,0.278 0.139,0.38c0.093,0.101 0.215,0.189 0.367,0.262c0.152,0.074 0.325,0.141 0.519,0.2c0.194,0.059 0.393,0.122 0.595,0.19c0.203,0.067 0.401,0.145 0.595,0.234c0.195,0.089 0.368,0.197 0.52,0.326c0.152,0.129 0.274,0.285 0.367,0.469c0.093,0.183 0.139,0.406 0.139,0.668c0,0.303 -0.055,0.584 -0.164,0.842c-0.11,0.257 -0.271,0.481 -0.482,0.671c-0.211,0.19 -0.473,0.337 -0.788,0.443c-0.314,0.105 -0.674,0.158 -1.079,0.158c-0.224,0 -0.44,-0.02 -0.649,-0.06c-0.209,-0.04 -0.408,-0.095 -0.595,-0.165c-0.188,-0.069 -0.363,-0.153 -0.526,-0.25c-0.162,-0.097 -0.307,-0.202 -0.434,-0.316l0.317,-0.519c0.038,-0.064 0.085,-0.113 0.142,-0.149c0.057,-0.036 0.128,-0.054 0.212,-0.054c0.089,0 0.177,0.029 0.263,0.086c0.087,0.057 0.188,0.119 0.304,0.186c0.116,0.068 0.257,0.13 0.421,0.187c0.165,0.057 0.369,0.086 0.614,0.086c0.203,0 0.378,-0.025 0.526,-0.073c0.147,-0.049 0.27,-0.115 0.367,-0.2c0.097,-0.084 0.169,-0.18 0.215,-0.288c0.047,-0.107 0.07,-0.222 0.07,-0.345c0,-0.164 -0.047,-0.3 -0.139,-0.405c-0.093,-0.106 -0.217,-0.196 -0.371,-0.272c-0.154,-0.076 -0.329,-0.144 -0.525,-0.203c-0.197,-0.059 -0.396,-0.122 -0.599,-0.19c-0.202,-0.067 -0.402,-0.145 -0.598,-0.234c-0.196,-0.089 -0.371,-0.202 -0.525,-0.339c-0.154,-0.137 -0.278,-0.304 -0.371,-0.5c-0.093,-0.196 -0.139,-0.436 -0.139,-0.719c0,-0.257 0.052,-0.502 0.155,-0.734c0.103,-0.232 0.255,-0.437 0.456,-0.614c0.2,-0.177 0.447,-0.318 0.741,-0.421c0.293,-0.104 0.632,-0.155 1.016,-0.155c0.435,0 0.829,0.069 1.184,0.209c0.354,0.139 0.652,0.329 0.892,0.569l-0.303,0.494Z" style="fill:#fff;fill-rule:nonzero;"/>
    <path d="M85.561,13.04c0.477,0 0.909,0.078 1.295,0.234c0.386,0.156 0.715,0.378 0.988,0.665c0.272,0.287 0.482,0.635 0.63,1.044c0.147,0.41 0.221,0.87 0.221,1.381c0,0.51 -0.074,0.97 -0.221,1.38c-0.148,0.409 -0.358,0.759 -0.63,1.048c-0.273,0.289 -0.602,0.511 -0.988,0.668c-0.386,0.156 -0.818,0.234 -1.295,0.234c-0.481,0 -0.915,-0.078 -1.301,-0.234c-0.386,-0.157 -0.716,-0.379 -0.991,-0.668c-0.274,-0.289 -0.485,-0.639 -0.633,-1.048c-0.148,-0.41 -0.222,-0.87 -0.222,-1.38c0,-0.511 0.074,-0.971 0.222,-1.381c0.148,-0.409 0.359,-0.757 0.633,-1.044c0.275,-0.287 0.605,-0.509 0.991,-0.665c0.386,-0.156 0.82,-0.234 1.301,-0.234Zm0,5.59c0.583,0 1.016,-0.195 1.301,-0.585c0.285,-0.391 0.428,-0.949 0.428,-1.675c0,-0.726 -0.143,-1.286 -0.428,-1.681c-0.285,-0.395 -0.718,-0.592 -1.301,-0.592c-0.591,0 -1.03,0.197 -1.317,0.592c-0.287,0.395 -0.43,0.955 -0.43,1.681c0,0.726 0.143,1.284 0.43,1.675c0.287,0.39 0.726,0.585 1.317,0.585Z" style="fill:#fff;fill-rule:nonzero;"/>
    <path d="M89.999,19.599l0,-6.458l0.823,0c0.186,0 0.304,0.087 0.355,0.26l0.089,0.563c0.118,-0.135 0.24,-0.258 0.367,-0.37c0.126,-0.112 0.263,-0.209 0.408,-0.292c0.146,-0.082 0.302,-0.146 0.469,-0.193c0.166,-0.046 0.347,-0.069 0.541,-0.069c0.207,0 0.397,0.029 0.57,0.088c0.173,0.059 0.326,0.144 0.459,0.254c0.133,0.109 0.248,0.242 0.345,0.398c0.097,0.157 0.177,0.332 0.241,0.526c0.097,-0.224 0.219,-0.416 0.367,-0.576c0.147,-0.161 0.312,-0.291 0.494,-0.393c0.181,-0.101 0.374,-0.176 0.579,-0.224c0.205,-0.049 0.412,-0.073 0.624,-0.073c0.346,0 0.655,0.055 0.927,0.164c0.272,0.11 0.502,0.269 0.69,0.478c0.188,0.209 0.33,0.466 0.428,0.77c0.097,0.303 0.145,0.65 0.145,1.038l0,4.109l-1.361,0l0,-4.109c0,-0.456 -0.098,-0.799 -0.294,-1.029c-0.197,-0.23 -0.487,-0.345 -0.871,-0.345c-0.173,0 -0.336,0.03 -0.488,0.089c-0.151,0.059 -0.284,0.145 -0.398,0.259c-0.114,0.114 -0.204,0.257 -0.269,0.428c-0.066,0.171 -0.099,0.37 -0.099,0.598l0,4.109l-1.361,0l0,-4.109c0,-0.473 -0.095,-0.82 -0.285,-1.042c-0.19,-0.221 -0.468,-0.332 -0.835,-0.332c-0.254,0 -0.488,0.064 -0.703,0.193c-0.216,0.129 -0.414,0.305 -0.595,0.529l0,4.761l-1.362,0Z" style="fill:#fff;fill-rule:nonzero;"/>
    <path d="M101.788,13.996c0.14,-0.144 0.284,-0.274 0.434,-0.39c0.15,-0.116 0.309,-0.216 0.478,-0.3c0.169,-0.085 0.348,-0.15 0.538,-0.197c0.19,-0.046 0.397,-0.069 0.621,-0.069c0.354,0 0.665,0.059 0.933,0.177c0.268,0.118 0.494,0.285 0.678,0.5c0.183,0.215 0.322,0.474 0.415,0.776c0.092,0.302 0.139,0.634 0.139,0.997l0,4.109l-1.355,0l0,-4.109c0,-0.435 -0.1,-0.772 -0.301,-1.013c-0.2,-0.241 -0.505,-0.361 -0.915,-0.361c-0.304,0 -0.585,0.07 -0.845,0.209c-0.259,0.139 -0.503,0.329 -0.731,0.57l0,4.704l-1.361,0l0,-6.458l0.823,0c0.185,0 0.304,0.087 0.354,0.26l0.095,0.595Z" style="fill:#fff;fill-rule:nonzero;"/>
    <path d="M109.038,13.141l0,6.458l-1.362,0l0,-6.458l1.362,0Zm0.227,-1.95c0,0.122 -0.024,0.238 -0.072,0.348c-0.049,0.11 -0.115,0.206 -0.2,0.288c-0.084,0.083 -0.182,0.148 -0.294,0.197c-0.112,0.048 -0.231,0.072 -0.358,0.072c-0.122,0 -0.237,-0.024 -0.345,-0.072c-0.108,-0.049 -0.201,-0.114 -0.282,-0.197c-0.08,-0.082 -0.144,-0.178 -0.193,-0.288c-0.048,-0.11 -0.073,-0.226 -0.073,-0.348c0,-0.127 0.025,-0.245 0.073,-0.355c0.049,-0.109 0.113,-0.205 0.193,-0.288c0.081,-0.082 0.174,-0.147 0.282,-0.196c0.108,-0.048 0.223,-0.073 0.345,-0.073c0.127,0 0.246,0.025 0.358,0.073c0.112,0.049 0.21,0.114 0.294,0.196c0.085,0.083 0.151,0.179 0.2,0.288c0.048,0.11 0.072,0.228 0.072,0.355Z" style="fill:#fff;fill-rule:nonzero;"/>
    <path d="M114.204,16.775c-0.486,0.017 -0.895,0.056 -1.228,0.117c-0.334,0.062 -0.604,0.14 -0.811,0.235c-0.207,0.095 -0.355,0.207 -0.446,0.338c-0.091,0.131 -0.136,0.275 -0.136,0.431c0,0.152 0.024,0.282 0.073,0.389c0.048,0.108 0.116,0.196 0.202,0.266c0.087,0.07 0.188,0.12 0.304,0.152c0.116,0.032 0.244,0.048 0.383,0.048c0.355,0 0.66,-0.067 0.915,-0.2c0.255,-0.133 0.503,-0.326 0.744,-0.579l0,-1.197Zm-3.609,-2.735c0.73,-0.68 1.6,-1.019 2.609,-1.019c0.371,0 0.701,0.06 0.99,0.18c0.29,0.12 0.532,0.29 0.728,0.51c0.197,0.219 0.347,0.48 0.45,0.782c0.103,0.302 0.155,0.636 0.155,1.003l0,4.103l-0.608,0c-0.131,0 -0.23,-0.02 -0.297,-0.06c-0.068,-0.04 -0.125,-0.122 -0.171,-0.244l-0.133,-0.525c-0.165,0.147 -0.327,0.279 -0.488,0.395c-0.16,0.116 -0.326,0.214 -0.497,0.295c-0.171,0.08 -0.354,0.14 -0.55,0.18c-0.197,0.04 -0.413,0.06 -0.649,0.06c-0.262,0 -0.506,-0.036 -0.732,-0.107c-0.226,-0.072 -0.421,-0.181 -0.585,-0.326c-0.165,-0.146 -0.295,-0.327 -0.39,-0.542c-0.095,-0.215 -0.142,-0.468 -0.142,-0.76c0,-0.249 0.066,-0.491 0.199,-0.728c0.133,-0.236 0.353,-0.448 0.659,-0.636c0.306,-0.188 0.709,-0.343 1.209,-0.465c0.5,-0.123 1.117,-0.192 1.852,-0.209l0,-0.431c0,-0.464 -0.099,-0.81 -0.298,-1.038c-0.198,-0.228 -0.489,-0.342 -0.873,-0.342c-0.262,0 -0.482,0.033 -0.659,0.098c-0.177,0.066 -0.331,0.136 -0.462,0.212c-0.131,0.076 -0.247,0.147 -0.348,0.212c-0.102,0.066 -0.209,0.098 -0.323,0.098c-0.093,0 -0.172,-0.024 -0.238,-0.072c-0.065,-0.049 -0.119,-0.109 -0.161,-0.181l-0.247,-0.443Z" style="fill:#fff;fill-rule:nonzero;"/>
</svg>

