<?xml version="1.0" encoding="UTF-8" standalone="no"?><!DOCTYPE svg PUBLIC "-//W3C//DTD SVG 1.1//EN"
        "http://www.w3.org/Graphics/SVG/1.1/DTD/svg11.dtd">
<svg width="123px" height="30px" viewBox="0 0 123 30" version="1.1" xmlns="http://www.w3.org/2000/svg" xmlns:xlink="http://www.w3.org/1999/xlink" xml:space="preserve" xmlns:serif="http://www.serif.com/" style="fill-rule:evenodd;clip-rule:evenodd;stroke-linejoin:round;stroke-miterlimit:1.41421;">
    <path d="M123,27c0,1.657 -1.343,3 -3,3l-117,0c-1.657,0 -3,-1.343 -3,-3l0,-24c0,-1.657 1.343,-3 3,-3l117,0c1.657,0 3,1.343 3,3l0,24Z" style="fill:#6a57d5;fill-rule:nonzero;"/>
    <path d="M30.912,14.888c0.357,0 0.673,-0.043 0.947,-0.13c0.274,-0.088 0.504,-0.211 0.689,-0.37c0.185,-0.16 0.324,-0.35 0.418,-0.571c0.093,-0.222 0.14,-0.466 0.14,-0.734c0,-0.544 -0.179,-0.955 -0.536,-1.231c-0.357,-0.277 -0.893,-0.415 -1.607,-0.415l-1.353,0l0,3.451l1.302,0Zm4.223,4.715l-1.098,0c-0.225,0 -0.391,-0.087 -0.497,-0.262l-2.373,-3.266c-0.073,-0.102 -0.15,-0.175 -0.233,-0.22c-0.083,-0.045 -0.212,-0.067 -0.386,-0.067l-0.938,0l0,3.815l-1.231,0l0,-9.142l2.584,0c0.578,0 1.078,0.058 1.499,0.175c0.421,0.117 0.768,0.286 1.043,0.508c0.274,0.221 0.477,0.488 0.609,0.8c0.132,0.313 0.198,0.663 0.198,1.05c0,0.323 -0.051,0.625 -0.153,0.906c-0.102,0.28 -0.25,0.532 -0.444,0.756c-0.193,0.223 -0.429,0.413 -0.708,0.57c-0.278,0.158 -0.594,0.277 -0.947,0.358c0.157,0.089 0.293,0.219 0.408,0.389l2.667,3.63Z" style="fill:#fff;fill-rule:nonzero;"/>
    <path d="M41.157,13.14l0,6.463l-0.676,0c-0.162,0 -0.264,-0.079 -0.306,-0.236l-0.09,-0.696c-0.28,0.311 -0.595,0.561 -0.944,0.75c-0.349,0.189 -0.748,0.284 -1.199,0.284c-0.353,0 -0.665,-0.059 -0.935,-0.176c-0.27,-0.117 -0.496,-0.281 -0.679,-0.494c-0.183,-0.213 -0.32,-0.47 -0.412,-0.772c-0.091,-0.302 -0.137,-0.636 -0.137,-1.001l0,-4.122l1.136,0l0,4.122c0,0.489 0.111,0.867 0.335,1.135c0.223,0.268 0.564,0.402 1.023,0.402c0.336,0 0.65,-0.08 0.941,-0.239c0.292,-0.16 0.561,-0.38 0.807,-0.661l0,-4.759l1.136,0Z" style="fill:#fff;fill-rule:nonzero;"/>
    <path d="M44.028,14.078c0.14,-0.157 0.289,-0.3 0.446,-0.427c0.158,-0.128 0.325,-0.237 0.501,-0.329c0.177,-0.091 0.364,-0.161 0.561,-0.21c0.198,-0.049 0.412,-0.074 0.642,-0.074c0.353,0 0.664,0.059 0.934,0.176c0.27,0.117 0.496,0.283 0.676,0.497c0.181,0.215 0.318,0.473 0.412,0.775c0.093,0.302 0.14,0.636 0.14,1.002l0,4.115l-1.142,0l0,-4.115c0,-0.489 -0.111,-0.869 -0.335,-1.139c-0.223,-0.27 -0.562,-0.405 -1.017,-0.405c-0.336,0 -0.65,0.081 -0.941,0.243c-0.291,0.161 -0.56,0.38 -0.807,0.657l0,4.759l-1.142,0l0,-6.463l0.683,0c0.161,0 0.261,0.079 0.299,0.236l0.09,0.702Z" style="fill:#fff;fill-rule:nonzero;"/>
    <path d="M54.541,13.14l0,6.463l-1.135,0l0,-6.463l1.135,0Zm0.243,-2.028c0,0.11 -0.023,0.213 -0.067,0.309c-0.045,0.096 -0.105,0.181 -0.179,0.255c-0.074,0.075 -0.162,0.133 -0.262,0.176c-0.1,0.042 -0.205,0.064 -0.315,0.064c-0.111,0 -0.214,-0.022 -0.31,-0.064c-0.096,-0.043 -0.18,-0.101 -0.252,-0.176c-0.072,-0.074 -0.13,-0.159 -0.172,-0.255c-0.043,-0.096 -0.064,-0.199 -0.064,-0.309c0,-0.111 0.021,-0.216 0.064,-0.316c0.042,-0.1 0.1,-0.187 0.172,-0.262c0.072,-0.074 0.156,-0.133 0.252,-0.175c0.096,-0.043 0.199,-0.064 0.31,-0.064c0.11,0 0.215,0.021 0.315,0.064c0.1,0.042 0.188,0.101 0.262,0.175c0.074,0.075 0.134,0.162 0.179,0.262c0.044,0.1 0.067,0.205 0.067,0.316Z" style="fill:#fff;fill-rule:nonzero;"/>
    <path d="M57.476,14.078c0.14,-0.157 0.289,-0.3 0.446,-0.427c0.158,-0.128 0.325,-0.237 0.501,-0.329c0.177,-0.091 0.364,-0.161 0.561,-0.21c0.198,-0.049 0.412,-0.074 0.642,-0.074c0.353,0 0.664,0.059 0.934,0.176c0.27,0.117 0.496,0.283 0.676,0.497c0.181,0.215 0.318,0.473 0.412,0.775c0.093,0.302 0.14,0.636 0.14,1.002l0,4.115l-1.142,0l0,-4.115c0,-0.489 -0.111,-0.869 -0.335,-1.139c-0.223,-0.27 -0.562,-0.405 -1.017,-0.405c-0.336,0 -0.65,0.081 -0.941,0.243c-0.291,0.161 -0.56,0.38 -0.807,0.657l0,4.759l-1.142,0l0,-6.463l0.683,0c0.161,0 0.261,0.079 0.299,0.236l0.09,0.702Z" style="fill:#fff;fill-rule:nonzero;"/>
    <rect x="67.058" y="10.461" width="1.238" height="9.142" style="fill:#fff;fill-rule:nonzero;"/>
    <path d="M71.338,14.078c0.141,-0.157 0.289,-0.3 0.447,-0.427c0.157,-0.128 0.324,-0.237 0.501,-0.329c0.176,-0.091 0.363,-0.161 0.561,-0.21c0.198,-0.049 0.412,-0.074 0.641,-0.074c0.353,0 0.665,0.059 0.935,0.176c0.27,0.117 0.495,0.283 0.676,0.497c0.181,0.215 0.318,0.473 0.411,0.775c0.094,0.302 0.141,0.636 0.141,1.002l0,4.115l-1.142,0l0,-4.115c0,-0.489 -0.112,-0.869 -0.335,-1.139c-0.223,-0.27 -0.562,-0.405 -1.018,-0.405c-0.336,0 -0.649,0.081 -0.941,0.243c-0.291,0.161 -0.56,0.38 -0.807,0.657l0,4.759l-1.141,0l0,-6.463l0.682,0c0.162,0 0.262,0.079 0.3,0.236l0.089,0.702Z" style="fill:#fff;fill-rule:nonzero;"/>
    <path d="M81.15,14.206c-0.051,0.093 -0.13,0.14 -0.236,0.14c-0.064,0 -0.136,-0.023 -0.217,-0.07c-0.081,-0.047 -0.18,-0.099 -0.297,-0.156c-0.117,-0.058 -0.256,-0.111 -0.418,-0.16c-0.161,-0.049 -0.353,-0.073 -0.574,-0.073c-0.191,0 -0.363,0.024 -0.516,0.073c-0.154,0.049 -0.284,0.116 -0.393,0.201c-0.108,0.085 -0.191,0.184 -0.249,0.297c-0.057,0.112 -0.086,0.235 -0.086,0.367c0,0.165 0.048,0.304 0.144,0.414c0.096,0.111 0.222,0.207 0.379,0.287c0.158,0.081 0.336,0.152 0.536,0.214c0.2,0.062 0.405,0.128 0.616,0.198c0.21,0.07 0.416,0.148 0.616,0.233c0.199,0.085 0.378,0.191 0.535,0.319c0.158,0.127 0.284,0.283 0.38,0.469c0.096,0.185 0.144,0.407 0.144,0.666c0,0.298 -0.054,0.573 -0.16,0.826c-0.106,0.253 -0.264,0.472 -0.472,0.657c-0.208,0.185 -0.464,0.331 -0.766,0.437c-0.302,0.107 -0.65,0.16 -1.046,0.16c-0.451,0 -0.859,-0.073 -1.225,-0.22c-0.365,-0.147 -0.676,-0.335 -0.931,-0.565l0.268,-0.434c0.034,-0.055 0.074,-0.097 0.121,-0.127c0.047,-0.03 0.106,-0.045 0.179,-0.045c0.076,0 0.157,0.03 0.242,0.089c0.085,0.06 0.188,0.126 0.31,0.198c0.121,0.073 0.269,0.138 0.443,0.198c0.174,0.06 0.391,0.089 0.651,0.089c0.221,0 0.414,-0.028 0.58,-0.086c0.166,-0.057 0.304,-0.135 0.415,-0.233c0.11,-0.097 0.192,-0.21 0.245,-0.338c0.054,-0.127 0.08,-0.263 0.08,-0.408c0,-0.179 -0.048,-0.326 -0.143,-0.443c-0.096,-0.117 -0.223,-0.217 -0.38,-0.3c-0.157,-0.083 -0.337,-0.156 -0.539,-0.217c-0.202,-0.062 -0.408,-0.127 -0.619,-0.195c-0.21,-0.068 -0.417,-0.145 -0.619,-0.233c-0.202,-0.087 -0.381,-0.196 -0.539,-0.328c-0.157,-0.132 -0.284,-0.295 -0.379,-0.488c-0.096,-0.194 -0.144,-0.429 -0.144,-0.705c0,-0.247 0.051,-0.484 0.153,-0.711c0.102,-0.228 0.251,-0.428 0.447,-0.6c0.196,-0.172 0.436,-0.31 0.721,-0.412c0.285,-0.102 0.61,-0.153 0.976,-0.153c0.425,0 0.807,0.067 1.145,0.201c0.338,0.134 0.63,0.318 0.877,0.552l-0.255,0.415Z" style="fill:#fff;fill-rule:nonzero;"/>
    <path d="M85.635,13.038c0.472,0 0.897,0.079 1.276,0.236c0.378,0.158 0.701,0.381 0.969,0.67c0.268,0.289 0.473,0.639 0.616,1.05c0.142,0.41 0.214,0.868 0.214,1.374c0,0.511 -0.072,0.97 -0.214,1.378c-0.143,0.409 -0.348,0.757 -0.616,1.047c-0.268,0.289 -0.591,0.511 -0.969,0.666c-0.379,0.155 -0.804,0.233 -1.276,0.233c-0.477,0 -0.905,-0.078 -1.286,-0.233c-0.38,-0.155 -0.705,-0.377 -0.973,-0.666c-0.268,-0.29 -0.473,-0.638 -0.615,-1.047c-0.143,-0.408 -0.214,-0.867 -0.214,-1.378c0,-0.506 0.071,-0.964 0.214,-1.374c0.142,-0.411 0.347,-0.761 0.615,-1.05c0.268,-0.289 0.593,-0.512 0.973,-0.67c0.381,-0.157 0.809,-0.236 1.286,-0.236Zm0,5.767c0.638,0 1.114,-0.213 1.429,-0.641c0.314,-0.427 0.472,-1.024 0.472,-1.789c0,-0.77 -0.158,-1.37 -0.472,-1.799c-0.315,-0.43 -0.791,-0.645 -1.429,-0.645c-0.324,0 -0.605,0.056 -0.846,0.166c-0.24,0.111 -0.44,0.27 -0.599,0.479c-0.16,0.208 -0.279,0.464 -0.357,0.768c-0.079,0.305 -0.119,0.648 -0.119,1.031c0,0.765 0.159,1.362 0.476,1.789c0.317,0.428 0.798,0.641 1.445,0.641Z" style="fill:#fff;fill-rule:nonzero;"/>
    <path d="M90.145,19.603l0,-6.463l0.683,0c0.161,0 0.261,0.079 0.299,0.236l0.083,0.664c0.239,-0.294 0.506,-0.534 0.804,-0.721c0.298,-0.187 0.642,-0.281 1.034,-0.281c0.433,0 0.785,0.122 1.055,0.364c0.271,0.242 0.465,0.57 0.584,0.982c0.094,-0.234 0.214,-0.436 0.361,-0.606c0.146,-0.17 0.311,-0.31 0.494,-0.421c0.183,-0.11 0.377,-0.191 0.584,-0.242c0.206,-0.051 0.415,-0.077 0.628,-0.077c0.34,0 0.643,0.055 0.909,0.163c0.266,0.108 0.491,0.267 0.676,0.475c0.185,0.209 0.327,0.465 0.425,0.769c0.097,0.304 0.146,0.652 0.146,1.043l0,4.115l-1.142,0l0,-4.115c0,-0.506 -0.11,-0.89 -0.331,-1.151c-0.221,-0.262 -0.54,-0.393 -0.957,-0.393c-0.187,0 -0.365,0.033 -0.533,0.099c-0.168,0.066 -0.316,0.163 -0.443,0.29c-0.128,0.128 -0.229,0.288 -0.303,0.482c-0.075,0.194 -0.112,0.418 -0.112,0.673l0,4.115l-1.142,0l0,-4.115c0,-0.519 -0.104,-0.906 -0.312,-1.161c-0.209,-0.255 -0.513,-0.383 -0.913,-0.383c-0.28,0 -0.54,0.076 -0.778,0.227c-0.238,0.151 -0.457,0.356 -0.657,0.615l0,4.817l-1.142,0Z" style="fill:#fff;fill-rule:nonzero;"/>
    <path d="M101.711,14.078c0.14,-0.157 0.289,-0.3 0.447,-0.427c0.157,-0.128 0.324,-0.237 0.5,-0.329c0.177,-0.091 0.364,-0.161 0.562,-0.21c0.198,-0.049 0.411,-0.074 0.641,-0.074c0.353,0 0.664,0.059 0.934,0.176c0.271,0.117 0.496,0.283 0.677,0.497c0.18,0.215 0.318,0.473 0.411,0.775c0.094,0.302 0.141,0.636 0.141,1.002l0,4.115l-1.142,0l0,-4.115c0,-0.489 -0.112,-0.869 -0.335,-1.139c-0.224,-0.27 -0.563,-0.405 -1.018,-0.405c-0.336,0 -0.649,0.081 -0.941,0.243c-0.291,0.161 -0.56,0.38 -0.807,0.657l0,4.759l-1.142,0l0,-6.463l0.683,0c0.161,0 0.261,0.079 0.3,0.236l0.089,0.702Z" style="fill:#fff;fill-rule:nonzero;"/>
    <path d="M108.958,13.14l0,6.463l-1.135,0l0,-6.463l1.135,0Zm0.243,-2.028c0,0.11 -0.023,0.213 -0.067,0.309c-0.045,0.096 -0.105,0.181 -0.179,0.255c-0.075,0.075 -0.162,0.133 -0.262,0.176c-0.1,0.042 -0.205,0.064 -0.315,0.064c-0.111,0 -0.214,-0.022 -0.31,-0.064c-0.096,-0.043 -0.18,-0.101 -0.252,-0.176c-0.072,-0.074 -0.13,-0.159 -0.172,-0.255c-0.043,-0.096 -0.064,-0.199 -0.064,-0.309c0,-0.111 0.021,-0.216 0.064,-0.316c0.042,-0.1 0.1,-0.187 0.172,-0.262c0.072,-0.074 0.156,-0.133 0.252,-0.175c0.096,-0.043 0.199,-0.064 0.31,-0.064c0.11,0 0.215,0.021 0.315,0.064c0.1,0.042 0.187,0.101 0.262,0.175c0.074,0.075 0.134,0.162 0.179,0.262c0.044,0.1 0.067,0.205 0.067,0.316Z" style="fill:#fff;fill-rule:nonzero;"/>
    <path d="M114.323,16.694c-0.523,0.017 -0.968,0.058 -1.336,0.124c-0.368,0.066 -0.668,0.152 -0.9,0.259c-0.232,0.106 -0.4,0.231 -0.504,0.376c-0.104,0.145 -0.156,0.306 -0.156,0.485c0,0.17 0.028,0.317 0.083,0.44c0.055,0.123 0.131,0.224 0.226,0.303c0.096,0.079 0.209,0.136 0.338,0.172c0.13,0.036 0.269,0.054 0.418,0.054c0.2,0 0.383,-0.02 0.549,-0.06c0.166,-0.041 0.322,-0.099 0.469,-0.176c0.147,-0.076 0.287,-0.168 0.421,-0.274c0.134,-0.106 0.265,-0.227 0.392,-0.364l0,-1.339Zm-3.668,-2.641c0.357,-0.345 0.742,-0.602 1.155,-0.772c0.412,-0.17 0.869,-0.255 1.371,-0.255c0.362,0 0.683,0.059 0.964,0.178c0.28,0.119 0.516,0.285 0.708,0.498c0.191,0.212 0.336,0.47 0.434,0.772c0.097,0.302 0.146,0.633 0.146,0.995l0,4.134l-0.504,0c-0.11,0 -0.195,-0.018 -0.255,-0.054c-0.059,-0.037 -0.106,-0.108 -0.14,-0.214l-0.128,-0.613c-0.17,0.158 -0.336,0.297 -0.497,0.418c-0.162,0.121 -0.332,0.224 -0.511,0.306c-0.178,0.083 -0.369,0.147 -0.571,0.192c-0.202,0.045 -0.426,0.067 -0.673,0.067c-0.251,0 -0.487,-0.035 -0.708,-0.105c-0.221,-0.071 -0.414,-0.176 -0.577,-0.316c-0.164,-0.141 -0.294,-0.318 -0.389,-0.533c-0.096,-0.215 -0.144,-0.469 -0.144,-0.762c0,-0.255 0.07,-0.501 0.211,-0.737c0.14,-0.236 0.367,-0.446 0.682,-0.628c0.315,-0.183 0.725,-0.333 1.231,-0.45c0.507,-0.117 1.127,-0.184 1.863,-0.201l0,-0.504c0,-0.502 -0.108,-0.882 -0.325,-1.139c-0.217,-0.257 -0.534,-0.386 -0.951,-0.386c-0.28,0 -0.515,0.035 -0.705,0.105c-0.189,0.071 -0.353,0.149 -0.491,0.236c-0.138,0.088 -0.257,0.166 -0.357,0.237c-0.1,0.07 -0.199,0.105 -0.297,0.105c-0.076,0 -0.142,-0.02 -0.197,-0.061c-0.056,-0.04 -0.103,-0.09 -0.141,-0.15l-0.204,-0.363Z" style="fill:#fff;fill-rule:nonzero;"/>
    <path d="M14.428,8.139c3.786,0 6.861,3.074 6.861,6.861c0,3.787 -3.075,6.861 -6.861,6.861c-3.787,0 -6.861,-3.074 -6.861,-6.861c0,-3.787 3.074,-6.861 6.861,-6.861Zm-0.866,1.148c0.283,-0.042 0.572,-0.064 0.866,-0.064c3.188,0 5.777,2.588 5.777,5.777c0,3.189 -2.589,5.777 -5.777,5.777c-3.189,0 -5.778,-2.588 -5.778,-5.777c0,-0.294 0.022,-0.583 0.065,-0.865c0.606,0.538 1.404,0.865 2.278,0.865c1.896,0 3.435,-1.539 3.435,-3.434c0,-0.874 -0.327,-1.672 -0.866,-2.279Z" style="fill:#fff;"/>
</svg>
