<?xml version="1.0" encoding="UTF-8" standalone="no"?><!DOCTYPE svg PUBLIC "-//W3C//DTD SVG 1.1//EN" "http://www.w3.org/Graphics/SVG/1.1/DTD/svg11.dtd"><svg width="100%" height="100%" viewBox="0 0 96 96" version="1.1" xmlns="http://www.w3.org/2000/svg" xmlns:xlink="http://www.w3.org/1999/xlink" xml:space="preserve" xmlns:serif="http://www.serif.com/" style="fill-rule:evenodd;clip-rule:evenodd;stroke-linejoin:round;stroke-miterlimit:1.41421;"><rect id="app-icon" x="0" y="0" width="96" height="96" style="fill:none;"/><clipPath id="_clip1"><rect x="0" y="0" width="96" height="96"/></clipPath><g clip-path="url(#_clip1)"><circle cx="48" cy="48" r="48" style="fill:#fff;"/><path d="M41.945,8.032c1.976,-0.297 3.997,-0.451 6.055,-0.451c22.308,0 40.419,18.111 40.419,40.419c0,22.308 -18.111,40.419 -40.419,40.419c-22.308,0 -40.419,-18.111 -40.419,-40.419c0,-2.058 0.154,-4.079 0.451,-6.055c4.243,3.767 9.826,6.055 15.94,6.055c13.262,0 24.028,-10.766 24.028,-24.028c0,-6.114 -2.288,-11.697 -6.055,-15.94Z" style="fill:#5849be;"/></g></svg>